<svg width="27" height="27" viewBox="0 0 27 27" fill="none" xmlns="http://www.w3.org/2000/svg">
<path fill-rule="evenodd" clip-rule="evenodd" d="M9.02276 3.21261C8.18317 2.5937 7.61778 2.45396 7.31441 2.51317C6.06285 2.75742 5.32095 3.24463 4.3158 4.24977C2.94377 5.62177 2.27806 6.64623 2.568 8.19951C2.90182 9.98785 4.5327 12.7172 9.02772 17.2124C13.5225 21.707 16.2683 23.3551 18.0667 23.6959C18.9001 23.8539 19.5347 23.7304 20.1042 23.4499C20.7131 23.15 21.2993 22.6452 21.9717 21.9435C22.5681 21.3211 22.93 20.8867 23.1832 20.4594C23.4245 20.0522 23.5955 19.6021 23.7276 18.926C23.7868 18.6226 23.6471 18.0572 23.0281 17.2175C22.4507 16.4344 21.6362 15.6566 20.8832 15.0217C20.3863 14.6027 19.6176 14.576 18.9966 15.0409L17.0987 16.4617C15.3867 17.7432 12.9946 17.5597 11.4842 16.0492L10.1907 14.7559C8.68036 13.2455 8.49678 10.8534 9.77833 9.14138L11.1991 7.24353C11.664 6.62252 11.6372 5.85377 11.2182 5.35688C10.5834 4.60406 9.80575 3.78978 9.02276 3.21261ZM10.5062 1.20027C11.518 1.94612 12.4417 2.92972 13.1295 3.74525C14.383 5.23177 14.2807 7.29865 13.2005 8.74175L11.7797 10.6396C11.2503 11.3466 11.3188 12.3484 11.9585 12.9881L13.252 14.2815C13.8917 14.9212 14.8933 14.9896 15.6005 14.4604L17.4983 13.0396C18.9415 11.9594 21.0082 11.857 22.4947 13.1104C23.3105 13.7981 24.2943 14.722 25.0403 15.734C25.7446 16.6894 26.4532 18.0124 26.1812 19.4054C26.0065 20.2997 25.7498 21.0319 25.334 21.7337C24.9301 22.4155 24.4053 23.0172 23.7768 23.6731C23.0486 24.4332 22.2182 25.1955 21.2088 25.6926C20.1602 26.2091 18.9751 26.4126 17.6011 26.1522C14.9848 25.6564 11.7663 23.4864 7.25995 18.9801C2.75393 14.474 0.597846 11.2692 0.110446 8.65825C-0.420817 5.81213 1.05803 3.97198 2.54803 2.482C3.77877 1.25127 4.94578 0.42826 6.83556 0.0594597C8.22821 -0.212328 9.55098 0.496147 10.5062 1.20027Z" fill="#39CED2"/>
</svg>
